Coordinates
version=1
nRows=16
nColumns=36
inDegrees=yes

Units are S.I. units (second, meters, Newtons, ...)
If the header above contains a line with 'inDegrees', this indicates whether rotational values are in degrees (yes) or radians (no).

endheader
time	pelvis_tilt	pelvis_list	pelvis_rotation	pelvis_tx	pelvis_ty	pelvis_tz	hip_flexion_r	hip_adduction_r	hip_rotation_r	knee_angle_r	knee_angle_r_beta	ankle_angle_r	subtalar_angle_r	mtp_angle_r	hip_flexion_l	hip_adduction_l	hip_rotation_l	knee_angle_l	knee_angle_l_beta	ankle_angle_l	subtalar_angle_l	mtp_angle_l	lumbar_extension	lumbar_bending	lumbar_rotation	arm_flex_r	arm_add_r	arm_rot_r	elbow_flex_r	pro_sup_r	arm_flex_l	arm_add_l	arm_rot_l	elbow_flex_l	pro_sup_l
     45.46666670	      5.03168600	     -0.27617445	     -0.82495535	      0.81049473	      0.83365948	      0.69757727	     19.77396488	      0.23179287	     -1.34206961	     33.49336764	      0.58456954	      1.02979606	    -14.87609216	     -7.49999987	     -7.21465851	      2.98754234	      9.91817492	      9.14648545	      0.15963629	     11.42634353	     -8.90438425	     -7.49999987	    -12.03511588	      3.07736124	     -4.83046641	      2.60229496	    -12.90842588	      6.16440512	     15.86265003	    100.70176796	     15.01950716	    -12.48122306	      9.91194567	     14.40469159	     92.57212751
     45.48333330	      5.23597542	     -0.43413984	     -0.69072329	      0.80499515	      0.83060181	      0.69855402	     19.50318387	      0.42279060	     -0.56704790	     26.79667976	      0.46769029	     -0.31561762	    -14.83819747	     -7.49999987	     -8.90189277	      2.69105546	      9.98121080	      8.72700761	      0.15231502	     13.32475557	     -8.70553372	     -7.49999987	    -12.50089032	      3.36093899	     -5.65224151	      2.13740467	    -12.72700318	      4.55647131	     14.66379804	    100.32558981	     16.63525080	    -13.20502118	      9.42350258	     15.52560039	     92.41071126
     45.50000000	      5.37748102	     -0.53948587	     -0.39146907	      0.79902150	      0.82789578	      0.70009066	     19.11066366	      0.44575847	      0.29622970	     19.81929971	      0.34591204	     -1.48404238	    -14.45726855	     -7.49999987	    -10.40027869	      2.43484796	     10.35175947	      8.45780525	      0.14761655	     14.95787659	     -9.03812766	     -7.49999987	    -12.95950758	      3.58448383	     -6.67554869	      1.95719797	    -12.63366195	      3.55722002	     13.66210586	     99.29704416	     18.12202828	    -14.12267368	      9.31642222	     17.13267671	     91.50999627
     45.51666670	      5.46174534	     -0.59489719	      0.05772720	      0.79396709	      0.82467140	      0.70199277	     18.59878606	      0.32952756	      1.38672502	     12.69273789	      0.22153007	     -2.47568929	    -14.11427210	     -7.49999987	    -11.75772339	      2.20132690	     10.71503917	      8.41696487	      0.14690375	     16.54668770	     -9.12954775	     -7.49999987	    -13.31102359	      3.72984521	     -7.77276909	      1.82217277	    -12.59108033	      2.40882494	     13.12641970	     98.37227207	     19.54764223	    -15.14259441	      9.41735157	     18.67822549	     90.64827922
     45.53333330	      5.44724069	     -0.52167793	      0.59519866	      0.79237632	      0.82217696	      0.70266497	     18.12182951	     -0.08963880	      2.50507009	      5.88079026	      0.10263915	     -2.53626238	    -13.23688352	     -7.49999987	    -13.06400011	      2.08991296	     11.41625008	      8.51279950	      0.14857638	     17.71402692	     -9.62021599	     -7.49999987	    -13.42386532	      3.72149805	     -8.73481120	      1.61668021	    -12.63847779	      1.38619937	     12.55392232	     97.48566262	     20.72372982	    -16.09143996	      9.44592709	     20.26234514	     89.75721437
     45.55000000	      5.06102211	     -0.14921858	      0.66186967	      0.79502208	      0.82060362	      0.70256437	     18.64664140	     -0.83369527	      3.71191192	      1.12963082	      0.01971578	     -1.26327256	    -11.65160326	     -7.49999987	    -14.01209653	      2.32794289	     11.31319651	      8.92588578	      0.15578610	     19.04363194	     -9.37562525	     -7.49999987	    -12.84314012	      3.29223772	     -9.33818525	      1.30646773	    -12.82665186	      0.43742534	     11.88012712	     97.96295471	     21.28110763	    -16.97707058	      9.09699198	     21.53460960	     90.00965145
     45.56666670	      3.65270947	      0.59668808	      0.20228947	      0.79834832	      0.81753982	      0.70392735	     21.58076540	     -1.73918773	      4.82824417	      0.35799309	      0.00624816	      1.43565090	    -10.13932047	     -7.49999987	    -13.75195563	      3.04742029	     10.81331218	      9.82984224	      0.17156311	     20.26049073	     -9.33934496	     -7.49999987	    -10.96609117	      2.37654728	     -9.53807483	      0.84483784	    -13.02701639	     -0.80445296	     10.91925819	     98.00575905	     21.09695780	    -17.78055564	      8.61647489	     22.76082896	     89.97088374
     45.58333330	      2.52957056	      0.85023379	      0.02379471	      0.80038165	      0.81305712	      0.70675111	     23.55997552	     -2.08740272	      5.28032398	      0.25869317	      0.00451505	      3.39264098	     -9.16394198	     -7.49999987	    -13.66385946	      3.14504274	     10.31438382	     11.27987462	      0.19687095	     21.54568869	     -9.16726417	     -7.49999987	     -9.26871926	      1.98603433	     -9.36318087	     -0.19859547	    -13.44822527	     -1.40460773	     10.32305540	     98.21984423	     20.99092897	    -18.09546488	      8.27175454	     23.54796547	     90.16601959
     45.60000000	      2.15863847	      0.41621901	      0.31973737	      0.80164957	      0.80928419	      0.71022436	     23.76266519	     -1.71950734	      4.61601629	      0.26407449	      0.00460897	      4.03881441	     -8.47379514	     -7.49999987	    -14.21960964	      2.34707673	      9.73743044	     13.14570979	      0.22943592	     22.48194655	     -8.78097120	     -7.49999987	     -8.39521282	      2.42655885	     -9.77342655	     -0.99298804	    -13.86731383	     -1.98311363	      9.79014514	     95.97450178	     20.72549223	    -18.25582474	      7.85271919	     24.10239690	     88.65215431
     45.61666670	      1.95955161	     -0.56169789	      1.02313380	      0.80443684	      0.80652449	      0.71385871	     22.96285710	     -0.70099781	      3.30106469	      0.38144597	      0.00665749	      2.88033022	     -8.64544078	     -7.49999987	    -14.59724448	      0.81709066	      8.94272424	     15.71322447	      0.27424750	     22.65802655	     -8.23167654	     -7.49999987	     -7.61083346	      3.53736970	    -11.15792896	     -1.02645488	    -14.06540582	     -6.53703440	      8.96319004	    102.53858856	     19.34193747	    -18.35680602	      4.53472851	     25.59698927	     93.81939522
     45.63333330	      2.59117856	     -1.93202388	      1.81985926	      0.80876725	      0.80555376	      0.71762824	     20.96706478	      0.96319175	      1.62172047	      0.93575640	      0.01633203	      0.63946738	     -9.24588676	     -7.49999987	    -15.76260878	     -1.18670443	      8.21407837	     18.31332018	      0.31962773	     21.11304364	     -8.39984071	     -7.49999987	     -7.71739881	      5.11980966	    -12.06329371	     -1.42701751	    -14.36541985	     -6.43521839	      8.59245796	     98.01244499	     18.67659654	    -18.20569050	      4.51074891	     26.23146384	     89.98293933
     45.65000000	      2.84035082	     -3.09967041	      2.13804542	      0.81288601	      0.80400467	      0.72115026	     20.30348208	      2.65693287	      0.15881635	      3.42029953	      0.05969549	     -1.03325795	     -9.50983712	     -7.49999987	    -15.89348706	     -2.86712310	      6.98367832	     21.90949635	      0.38239285	     18.49644638	     -8.59520835	     -7.49999987	     -7.44276375	      6.36817422	    -12.55950487	     -1.49115093	    -14.63463879	     -8.01664216	      8.08942733	    102.67377966	     17.66599349	    -17.94253010	      2.63767106	     27.30140443	     94.51144674
     45.66666670	      2.87336854	     -4.09504748	      2.10044990	      0.81575661	      0.80274303	      0.72289009	     20.44427719	      4.18696969	     -0.93062263	      6.93670824	      0.12106840	     -1.69022667	     -9.52981902	     -7.49999987	    -15.19917780	     -4.30613648	      5.54958073	     26.39125476	      0.46061429	     14.92376261	     -8.93303074	     -7.49999987	     -6.95593670	      7.36918828	    -12.59706233	     -1.78406457	    -15.03151532	     -6.98120053	      7.91119301	    101.29548181	     16.80344229	    -17.64134482	      2.40336433	     27.77143632	     93.35991132
     45.68333330	      2.80929721	     -4.98171655	      1.89906106	      0.81762055	      0.80274400	      0.72305929	     20.64081935	      5.54255853	     -1.61419431	     10.27777038	      0.17938093	     -1.66660275	     -9.55161769	     -7.49999987	    -13.86106280	     -5.71349936	      3.90932047	     31.53249511	      0.55034586	     10.75702506	     -8.83221385	     -7.49999987	     -6.40105035	      8.25344812	    -12.13564447	     -1.98376163	    -15.42184031	     -6.58087320	      7.72755446	    100.60232057	     16.04838724	    -17.03501131	      2.10483235	     27.83548453	     93.11533938
     45.70000000	      2.82109345	     -5.86808611	      1.60083400	      0.81964251	      0.80448523	      0.72385571	     20.43142516	      6.85395885	     -2.00086042	     13.02201357	      0.22727701	     -1.13178771	     -9.62844754	     -7.49999987	    -11.98349880	     -7.21770511	      2.21979775	     37.35208748	      0.65191691	      5.98461698	     -8.41622351	     -7.49999987	     -6.05158877	      9.16890042	    -11.15967101	     -2.21502800	    -15.84219501	     -6.61516795	      7.85917735	    100.12888210	     15.32929759	    -16.21234193	      1.93006299	     27.82974950	     92.82515310
     45.71666670	      2.92298574	     -6.77878321	      1.24331039	      0.82235708	      0.80745015	      0.72689040	     19.68429575	      8.21965635	     -2.11205554	     14.99000864	      0.26162501	     -0.25548207	     -9.78037127	     -7.49999987	     -9.69493996	     -8.83831080	      0.66164069	     43.59248218	      0.76083234	      0.83898671	     -7.76702268	     -7.49999987	     -5.82750887	     10.12856386	    -10.24621956	     -1.75754625	    -16.17466831	     -6.55505539	      7.78228985	    100.10835809	     14.44034372	    -15.42977714	      1.82165501	     27.26049118	     92.83727311
